<?xml version="1.0" encoding="utf-8"?>
<svg version="1.1" xmlns:xlink="http://www.w3.org/1999/xlink" width="20px" height="14px" xmlns="http://www.w3.org/2000/svg">
  <g transform="matrix(1 0 0 1 -316 -286 )">
    <path d="M 19.6022727272727 5.36931818181818  C 19.8674242424242 5.55492424242424  20 5.78030303030303  20 6.04545454545455  L 20 7.95454545454545  C 20 8.21969696969697  19.8674242424242 8.44507575757576  19.6022727272727 8.63068181818182  C 19.3371212121212 8.81628787878788  19.0151515151515 8.90909090909091  18.6363636363636 8.90909090909091  L 12.7272727272727 8.90909090909091  L 12.7272727272727 13.0454545454545  C 12.7272727272727 13.3106060606061  12.594696969697 13.5359848484848  12.3295454545455 13.7215909090909  C 12.0643939393939 13.907196969697  11.7424242424242 14  11.3636363636364 14  L 8.63636363636364 14  C 8.25757575757576 14  7.93560606060606 13.907196969697  7.67045454545455 13.7215909090909  C 7.40530303030303 13.5359848484848  7.27272727272727 13.3106060606061  7.27272727272727 13.0454545454545  L 7.27272727272727 8.90909090909091  L 1.36363636363636 8.90909090909091  C 0.984848484848485 8.90909090909091  0.662878787878788 8.81628787878788  0.397727272727273 8.63068181818182  C 0.132575757575758 8.44507575757576  0 8.21969696969697  0 7.95454545454545  L 0 6.04545454545455  C 0 5.78030303030303  0.132575757575758 5.55492424242424  0.397727272727273 5.36931818181818  C 0.662878787878788 5.18371212121212  0.984848484848485 5.09090909090909  1.36363636363636 5.09090909090909  L 7.27272727272727 5.09090909090909  L 7.27272727272727 0.954545454545455  C 7.27272727272727 0.689393939393939  7.40530303030303 0.464015151515151  7.67045454545455 0.278409090909091  C 7.93560606060606 0.0928030303030298  8.25757575757576 0  8.63636363636364 0  L 11.3636363636364 0  C 11.7424242424242 0  12.0643939393939 0.0928030303030298  12.3295454545455 0.278409090909091  C 12.594696969697 0.464015151515151  12.7272727272727 0.689393939393939  12.7272727272727 0.954545454545455  L 12.7272727272727 5.09090909090909  L 18.6363636363636 5.09090909090909  C 19.0151515151515 5.09090909090909  19.3371212121212 5.18371212121212  19.6022727272727 5.36931818181818  Z " fill-rule="nonzero" fill="#000000" stroke="none" transform="matrix(1 0 0 1 316 286 )" />
  </g>
</svg>