<?xml version="1.0" encoding="utf-8"?>
<svg version="1.1" xmlns:xlink="http://www.w3.org/1999/xlink" width="18px" height="11px" xmlns="http://www.w3.org/2000/svg">
  <g transform="matrix(1 0 0 1 -721 -366 )">
    <path d="M 17.5757575757576 8.22222222222222  C 17.8585858585859 8.39506172839506  18 8.60493827160494  18 8.85185185185185  C 18 9.09876543209877  17.8585858585859 9.30864197530864  17.5757575757576 9.48148148148148  L 15.5151515151515 10.7407407407407  C 15.2323232323232 10.9135802469136  14.8888888888889 11  14.4848484848485 11  C 14.0808080808081 11  13.7373737373737 10.9135802469136  13.4545454545455 10.7407407407407  L 9 8.01851851851852  L 4.54545454545455 10.7407407407407  C 4.26262626262626 10.9135802469136  3.91919191919192 11  3.51515151515152 11  C 3.11111111111111 11  2.76767676767677 10.9135802469136  2.48484848484848 10.7407407407407  L 0.424242424242424 9.48148148148148  C 0.141414141414142 9.30864197530864  0 9.09876543209877  0 8.85185185185185  C 0 8.60493827160494  0.141414141414142 8.39506172839506  0.424242424242424 8.22222222222222  L 4.87878787878788 5.5  L 0.424242424242424 2.77777777777778  C 0.141414141414142 2.60493827160494  0 2.39506172839506  0 2.14814814814815  C 0 1.90123456790123  0.141414141414142 1.69135802469136  0.424242424242424 1.51851851851852  L 2.48484848484848 0.259259259259259  C 2.76767676767677 0.0864197530864194  3.11111111111111 0  3.51515151515152 0  C 3.91919191919192 0  4.26262626262626 0.0864197530864194  4.54545454545455 0.259259259259259  L 9 2.98148148148148  L 13.4545454545455 0.259259259259259  C 13.7373737373737 0.0864197530864194  14.0808080808081 0  14.4848484848485 0  C 14.8888888888889 0  15.2323232323232 0.0864197530864194  15.5151515151515 0.259259259259259  L 17.5757575757576 1.51851851851852  C 17.8585858585859 1.69135802469136  18 1.90123456790123  18 2.14814814814815  C 18 2.39506172839506  17.8585858585859 2.60493827160494  17.5757575757576 2.77777777777778  L 13.1212121212121 5.5  L 17.5757575757576 8.22222222222222  Z " fill-rule="nonzero" fill="#8400ff" stroke="none" transform="matrix(1 0 0 1 721 366 )" />
  </g>
</svg>