<?xml version="1.0" encoding="utf-8"?>
<svg version="1.1" xmlns:xlink="http://www.w3.org/1999/xlink" width="18px" height="10px" xmlns="http://www.w3.org/2000/svg">
  <g transform="matrix(1 0 0 1 -1114 -585 )">
    <path d="M 17.5757575757576 7.47474747474747  C 17.8585858585859 7.63187429854096  18 7.82267115600449  18 8.04713804713805  C 18 8.27160493827161  17.8585858585859 8.46240179573513  17.5757575757576 8.61952861952862  L 15.5151515151515 9.76430976430976  C 15.2323232323232 9.92143658810325  14.8888888888889 10  14.4848484848485 10  C 14.0808080808081 10  13.7373737373737 9.92143658810325  13.4545454545455 9.76430976430976  L 9 7.28956228956229  L 4.54545454545455 9.76430976430976  C 4.26262626262626 9.92143658810325  3.91919191919192 10  3.51515151515152 10  C 3.11111111111111 10  2.76767676767677 9.92143658810325  2.48484848484848 9.76430976430976  L 0.424242424242424 8.61952861952862  C 0.141414141414142 8.46240179573513  0 8.27160493827161  0 8.04713804713805  C 0 7.82267115600449  0.141414141414142 7.63187429854096  0.424242424242424 7.47474747474747  L 4.87878787878788 5  L 0.424242424242424 2.52525252525253  C 0.141414141414142 2.36812570145903  0 2.17732884399551  0 1.95286195286195  C 0 1.72839506172839  0.141414141414142 1.53759820426487  0.424242424242424 1.38047138047138  L 2.48484848484848 0.235690235690236  C 2.76767676767677 0.0785634118967449  3.11111111111111 0  3.51515151515152 0  C 3.91919191919192 0  4.26262626262626 0.0785634118967449  4.54545454545455 0.235690235690236  L 9 2.71043771043771  L 13.4545454545455 0.235690235690236  C 13.7373737373737 0.0785634118967449  14.0808080808081 0  14.4848484848485 0  C 14.8888888888889 0  15.2323232323232 0.0785634118967449  15.5151515151515 0.235690235690236  L 17.5757575757576 1.38047138047138  C 17.8585858585859 1.53759820426487  18 1.72839506172839  18 1.95286195286195  C 18 2.17732884399551  17.8585858585859 2.36812570145903  17.5757575757576 2.52525252525253  L 13.1212121212121 5  L 17.5757575757576 7.47474747474747  Z " fill-rule="nonzero" fill="#d9001b" stroke="none" transform="matrix(1 0 0 1 1114 585 )" />
  </g>
</svg>